<svg width="160" height="60" viewBox="0 0 219 75" fill="none" xmlns="http://www.w3.org/2000/svg">
<path d="M18.6663 74.5495C14.8204 74.5403 10.9962 73.9715 7.31332 72.8606C5.65634 72.3726 4.06167 71.693 2.56151 70.8353C1.64977 70.3741 0.914432 69.6254 0.468603 68.7044C0.0764155 67.8841 -0.0742687 66.9687 0.034227 66.0656C0.136617 65.1858 0.485775 64.3532 1.04119 63.6643C1.58858 62.9894 2.35071 62.5236 3.19991 62.3448C4.20459 62.1594 5.24233 62.337 6.12866 62.8462C8.01912 63.8998 10.052 64.6731 12.1639 65.142C14.2963 65.636 16.4777 65.8861 18.6663 65.8875C21.9439 65.8875 24.2803 65.3817 25.6756 64.3701C26.3124 63.9571 26.8366 63.3917 27.2008 62.7248C27.5651 62.058 27.7579 61.3107 27.7619 60.5504C27.7907 59.9436 27.6708 59.3389 27.4126 58.7892C27.1545 58.2395 26.766 57.7615 26.2811 57.397C25.2939 56.6317 23.5651 55.972 21.0949 55.4179L13.4736 53.8214C9.16052 52.9418 5.95974 51.4025 3.87122 49.2034C1.7827 47.0044 0.738443 44.1302 0.738443 40.581C0.712288 38.4496 1.19759 36.3432 2.15346 34.4391C3.1099 32.5722 4.45682 30.9341 6.10233 29.6364C7.92726 28.2321 9.99579 27.1786 12.2033 26.5292C14.7314 25.7873 17.3552 25.4249 19.9892 25.4539C22.4972 25.4585 24.9951 25.7731 27.4263 26.3907C29.6879 26.9214 31.85 27.8123 33.83 29.0295C34.6584 29.4945 35.3107 30.2203 35.686 31.0944C36.0163 31.8835 36.1321 32.7462 36.0217 33.5947C35.915 34.4114 35.5613 35.1758 35.0081 35.7849C34.4567 36.41 33.7175 36.8383 32.902 37.0054C31.8304 37.1449 30.7426 36.9319 29.8022 36.3985C28.3065 35.6262 26.7153 35.0561 25.0701 34.703C23.3868 34.3448 21.6705 34.1656 19.9497 34.1686C18.313 34.1286 16.682 34.3787 15.1321 34.9075C13.9444 35.304 12.8942 36.0317 12.1046 37.0054C11.4088 37.8896 11.0371 38.9865 11.0516 40.1126C11.035 40.7173 11.1569 41.3177 11.4079 41.8678C11.6589 42.4179 12.0323 42.903 12.4995 43.2858C13.4385 44.0995 15.0773 44.7592 17.4159 45.265L25.0043 46.8417C29.3919 47.8048 32.6827 49.3442 34.8765 51.4596C37.0286 53.5509 38.108 56.3151 38.108 59.7324C38.1506 61.8459 37.6999 63.9401 36.7917 65.8479C35.8753 67.7 34.5359 69.3094 32.8823 70.545C31.042 71.9197 28.9617 72.9378 26.7484 73.5467C24.1163 74.268 21.3944 74.6057 18.6663 74.5495Z" fill="url(#paint0_linear_27_11)"/>
<path d="M50.1388 74.4307C49.4246 74.4794 48.7081 74.3784 48.0351 74.1342C47.362 73.89 46.747 73.5079 46.2294 73.0123C45.2935 71.9148 44.8214 70.4949 44.9131 69.054V31.5298C44.9131 29.7705 45.3738 28.4511 46.2952 27.5715C46.8347 27.1023 47.4611 26.7443 48.1387 26.5179C48.8162 26.2916 49.5317 26.2012 50.2441 26.2521H66.6253C71.9212 26.2521 76.0083 27.5913 78.8866 30.2697C81.7649 32.9481 83.204 36.6865 83.204 41.4848C83.204 46.2611 81.7649 49.9994 78.8866 52.6998C76.0083 55.4003 71.9212 56.7505 66.6253 56.7505H55.325V69.1134C55.4057 70.5528 54.9349 71.9687 54.0087 73.0717C53.4944 73.557 52.8842 73.9287 52.2176 74.1628C51.551 74.3969 50.8428 74.4881 50.1388 74.4307ZM55.325 48.5569H64.8286C67.527 48.5569 69.5826 47.9477 70.9954 46.7295C72.4083 45.5112 73.1169 43.7322 73.1213 41.3924C73.1213 39.0483 72.4126 37.289 70.9954 36.1147C69.5782 34.9405 67.5226 34.3555 64.8286 34.3599H55.325V48.5569Z" fill="url(#paint1_linear_27_11)"/>
<path d="M127.721 74.4308C127.061 74.4748 126.4 74.3802 125.779 74.153C125.158 73.9258 124.591 73.571 124.114 73.1113C123.232 72.0707 122.786 70.7275 122.871 69.3642V30.8569C122.772 29.4396 123.217 28.0382 124.114 26.9383C124.544 26.4922 125.065 26.1436 125.64 25.916C126.216 25.6884 126.833 25.5871 127.451 25.6189C128.435 25.5559 129.414 25.8052 130.248 26.3313C131.1 27.0046 131.859 27.7876 132.506 28.6601L156.16 58.855H154.343V30.5865C154.261 29.2435 154.708 27.9218 155.587 26.9053C156.599 26.0465 157.881 25.5752 159.207 25.5752C160.532 25.5752 161.815 26.0465 162.827 26.9053C163.706 27.9218 164.153 29.2435 164.07 30.5865V69.5621C164.139 70.8464 163.731 72.1107 162.925 73.1113C162.54 73.5493 162.061 73.8951 161.525 74.1235C160.988 74.3518 160.408 74.4568 159.825 74.4308C158.776 74.4844 157.734 74.225 156.831 73.6853C155.918 73.0234 155.111 72.2272 154.435 71.3235L130.821 41.122H132.572V69.3642C132.661 70.7225 132.227 72.0634 131.361 73.1113C130.881 73.5767 130.309 73.9348 129.682 74.1623C129.055 74.3897 128.386 74.4812 127.721 74.4308Z" fill="url(#paint2_linear_27_11)"/>
<path d="M174.963 74.4308C173.873 74.4778 172.797 74.17 171.896 73.5534C171.122 72.9798 170.593 72.1337 170.415 71.185C170.237 70.0523 170.439 68.8924 170.988 67.8865L188.225 29.9796C188.774 28.661 189.657 27.5083 190.785 26.6348C191.801 25.9507 192.997 25.5854 194.22 25.5854C195.444 25.5854 196.64 25.9507 197.656 26.6348C198.774 27.5026 199.636 28.6587 200.15 29.9796L217.538 67.8733C218.094 68.8943 218.324 70.0618 218.197 71.218C218.138 71.686 217.986 72.1372 217.748 72.5443C217.51 72.9514 217.193 73.306 216.815 73.5864C215.944 74.1802 214.905 74.4763 213.853 74.4308C212.581 74.5116 211.323 74.1272 210.312 73.3489C209.334 72.4054 208.584 71.25 208.12 69.9712L204.079 60.5769L208.259 63.4862H180.156L184.335 60.5769L180.386 69.9712C179.909 71.2374 179.186 72.3965 178.26 73.3819C177.339 74.1476 176.156 74.5238 174.963 74.4308ZM194.102 37.3419L185.48 57.9447L183.657 55.3058H204.751L202.934 57.9447L194.24 37.3419H194.102Z" fill="url(#paint3_linear_27_11)"/>
<path d="M114.446 10.8413C116.375 0.00227752 106.311 2.8984 97.9004 1.91543C85.7247 -1.12583 80.0186 -1.84491 81.7166 9.76598C82.3747 14.4169 88.7522 20.1696 98.3282 20.196C108.589 20.5918 112.11 19.3054 114.446 10.8413Z" fill="url(#paint4_linear_27_11)"/>
<path d="M102.244 41.4188C110.353 40.4952 113.571 36.8009 113.913 31.6947C114.677 22.7095 106.516 26.6215 99.7895 26.8656C87.6665 25.2625 85.9158 25.7837 87.7849 35.5078C88.4957 39.2022 94.7218 42.5535 102.244 41.4188Z" fill="url(#paint5_linear_27_11)"/>
<path d="M106.76 65.8019C100.534 64.9773 97.9931 64.654 98.717 69.6678C99.3752 74.1868 102.784 75.2753 107.819 74.9455C112.262 74.6024 114.526 72.8608 114.967 69.615C115.355 65.0102 113.025 64.4825 106.76 65.8019Z" fill="url(#paint6_linear_27_11)"/>
<path d="M105.759 58.9473C111.208 57.7665 113.584 55.121 113.571 51.0968C113.262 45.4035 110.195 44.5393 102.198 47.4552C94.3005 48.359 91.5626 47.9632 93.4449 53.8874C95.268 59.6202 99.467 59.8643 105.759 58.9473Z" fill="url(#paint7_linear_27_11)"/>
<defs>
<linearGradient id="paint0_linear_27_11" x1="19.0349" y1="-3.73168" x2="19.0349" y2="120.3" gradientUnits="userSpaceOnUse">
<stop offset="0.12" stop-color="#27AE88"/>
<stop offset="0.6" stop-color="#22ACB3"/>
<stop offset="0.89" stop-color="#1FABCF"/>
</linearGradient>
<linearGradient id="paint1_linear_27_11" x1="64.0191" y1="-3.73171" x2="64.0191" y2="120.3" gradientUnits="userSpaceOnUse">
<stop offset="0.12" stop-color="#27AE88"/>
<stop offset="0.6" stop-color="#22ACB3"/>
<stop offset="0.89" stop-color="#1FABCF"/>
</linearGradient>
<linearGradient id="paint2_linear_27_11" x1="143.457" y1="-3.73163" x2="143.457" y2="120.3" gradientUnits="userSpaceOnUse">
<stop offset="0.12" stop-color="#27AE88"/>
<stop offset="0.6" stop-color="#22ACB3"/>
<stop offset="0.89" stop-color="#1FABCF"/>
</linearGradient>
<linearGradient id="paint3_linear_27_11" x1="194.293" y1="-3.73159" x2="194.293" y2="120.3" gradientUnits="userSpaceOnUse">
<stop offset="0.12" stop-color="#27AE88"/>
<stop offset="0.6" stop-color="#22ACB3"/>
<stop offset="0.89" stop-color="#1FABCF"/>
</linearGradient>
<linearGradient id="paint4_linear_27_11" x1="98.0518" y1="-3.73168" x2="98.0518" y2="120.3" gradientUnits="userSpaceOnUse">
<stop offset="0.12" stop-color="#27AE88"/>
<stop offset="0.6" stop-color="#22ACB3"/>
<stop offset="0.89" stop-color="#1FABCF"/>
</linearGradient>
<linearGradient id="paint5_linear_27_11" x1="100.553" y1="-3.73168" x2="100.553" y2="120.3" gradientUnits="userSpaceOnUse">
<stop offset="0.12" stop-color="#27AE88"/>
<stop offset="0.6" stop-color="#22ACB3"/>
<stop offset="0.89" stop-color="#1FABCF"/>
</linearGradient>
<linearGradient id="paint6_linear_27_11" x1="106.799" y1="-3.73148" x2="106.799" y2="120.3" gradientUnits="userSpaceOnUse">
<stop offset="0.12" stop-color="#27AE88"/>
<stop offset="0.6" stop-color="#22ACB3"/>
<stop offset="0.89" stop-color="#1FABCF"/>
</linearGradient>
<linearGradient id="paint7_linear_27_11" x1="103.218" y1="-3.73165" x2="103.218" y2="120.3" gradientUnits="userSpaceOnUse">
<stop offset="0.12" stop-color="#27AE88"/>
<stop offset="0.6" stop-color="#22ACB3"/>
<stop offset="0.89" stop-color="#1FABCF"/>
</linearGradient>
</defs>
</svg>