<?xml version="1.0" standalone="no"?>
<!DOCTYPE svg PUBLIC "-//W3C//DTD SVG 20010904//EN"
 "http://www.w3.org/TR/2001/REC-SVG-20010904/DTD/svg10.dtd">
<svg version="1.0" xmlns="http://www.w3.org/2000/svg"
 width="240.000000pt" height="240.000000pt" viewBox="0 0 240.000000 240.000000"
 preserveAspectRatio="xMidYMid meet">
<metadata>
Created by potrace 1.14, written by Peter Selinger 2001-2017
</metadata>
<g transform="translate(0.000000,240.000000) scale(0.100000,-0.100000)"
fill="#000000" stroke="none">
<path d="M755 2386 c-72 -32 -95 -86 -92 -214 3 -79 8 -108 27 -148 60 -123
220 -229 390 -256 88 -15 291 -17 370 -4 126 21 201 90 251 232 39 115 28 227
-27 275 -36 31 -116 51 -224 55 -211 8 -257 13 -375 39 -139 32 -275 40 -320
21z"/>
<path d="M1509 1576 c-2 -2 -29 -6 -59 -10 -30 -3 -82 -10 -114 -15 -63 -9
-79 -8 -196 4 -243 27 -306 -8 -294 -160 8 -105 23 -159 55 -198 85 -103 271
-147 469 -112 227 41 332 146 332 335 0 102 -39 147 -133 155 -31 3 -58 3 -60
1z"/>
<path d="M1490 933 c-14 -3 -61 -15 -105 -28 -44 -12 -111 -26 -149 -29 -166
-16 -206 -38 -206 -111 0 -64 36 -151 81 -196 45 -45 97 -62 189 -62 259 1
403 105 387 282 -5 64 -27 110 -60 131 -22 13 -91 20 -137 13z"/>
<path d="M1259 308 c-36 -12 -53 -56 -46 -119 14 -119 93 -181 229 -181 197
-1 291 61 292 191 1 103 -42 132 -171 115 -63 -9 -124 -9 -218 -2 -33 3 -72 1
-86 -4z"/>
</g>
</svg>
